<svg xmlns="http://www.w3.org/2000/svg" width="477.801" height="448.501" viewBox="0 0 477.801 448.501">
  <defs>
    <style>
      .cls-1 {
        fill: #574c4c;
      }
    </style>
  </defs>
  <path id="pattern_waves-9195fde3eec4d7f1ea6e5794af2a00cf" class="cls-1" d="M477.8,448.5c-14.184,0-21.464-3.855-28.37-7.534s-12.5-6.483-24.637-6.483-18.29,3.155-24.631,6.483-14.184,7.534-28.37,7.534-21.464-3.855-28.37-7.534-12.508-6.479-24.635-6.479-18.291,3.151-24.637,6.483-14.184,7.534-28.37,7.534-21.464-3.855-28.37-7.534-12.5-6.483-24.637-6.483-18.291,3.151-24.637,6.483-14.558,7.534-28.93,7.534-21.464-3.855-28.37-7.534-12.32-6.483-24.638-6.483-18.291,3.151-24.637,6.483S67.378,448.5,53.006,448.5s-21.464-3.855-28.37-7.534S12.318,434.485,0,434.485v-7.008c14.184,0,21.464,3.855,28.37,7.534s12.5,6.483,24.637,6.483,18.291-3.151,24.637-6.483,14.184-7.534,28.37-7.534,21.464,3.855,28.37,7.534,12.5,6.483,24.637,6.483,18.291-3.151,24.637-6.483,14.184-7.534,28.37-7.534,21.464,3.855,28.37,7.534,12.5,6.483,24.637,6.483,18.291-3.151,24.637-6.483,14.184-7.534,28.37-7.534,21.464,3.855,28.37,7.534,12.5,6.483,24.637,6.483,18.291-3.151,24.637-6.483,14.184-7.534,28.37-7.534,21.464,3.855,28.37,7.534,12.5,6.483,24.637,6.483Zm0-28.557c-14.184,0-21.464-3.855-28.37-7.534s-12.5-6.483-24.637-6.483-18.291,3.151-24.637,6.483-14.184,7.534-28.37,7.534-21.464-3.855-28.37-7.534-12.5-6.483-24.637-6.483-18.291,3.151-24.637,6.483-14.184,7.534-28.37,7.534-21.464-3.855-28.37-7.534-12.5-6.483-24.637-6.483-18.291,3.151-24.637,6.483-14.184,7.534-28.37,7.534-21.464-3.855-28.37-7.534-12.5-6.483-24.637-6.483-18.291,3.151-24.637,6.483-14.184,7.534-28.37,7.534-21.458-3.858-28.367-7.533S12.318,405.925,0,405.925v-7.008c14.184,0,21.464,3.855,28.37,7.534s12.5,6.483,24.637,6.483,18.291-3.151,24.637-6.483,14.184-7.534,28.37-7.534,21.464,3.855,28.37,7.534,12.5,6.483,24.637,6.483,18.291-3.151,24.637-6.483,14.184-7.534,28.37-7.534,21.464,3.855,28.37,7.534,12.5,6.483,24.637,6.483,18.291-3.151,24.637-6.483,14.184-7.534,28.37-7.534,21.464,3.855,28.37,7.534,12.5,6.483,24.637,6.483,18.291-3.151,24.637-6.483,14.184-7.534,28.37-7.534,21.464,3.855,28.37,7.534,12.5,6.483,24.637,6.483Zm0-28.557c-14.184,0-21.464-3.855-28.37-7.534s-12.5-6.483-24.637-6.483-18.291,3.151-24.637,6.483-14.184,7.534-28.37,7.534-21.464-3.855-28.37-7.534-12.5-6.483-24.637-6.483-18.291,3.151-24.637,6.483-14.184,7.534-28.37,7.534-21.464-3.855-28.37-7.534-12.5-6.483-24.637-6.483-18.291,3.151-24.637,6.483-14.184,7.534-28.37,7.534-21.464-3.855-28.37-7.534-12.5-6.483-24.637-6.483-18.291,3.151-24.637,6.483-14.184,7.534-28.37,7.534-21.464-3.855-28.37-7.534-13.064-6.3-25.379-6.3v-7.008c14.184,0,21.464,3.855,28.37,7.534s12.5,6.483,24.637,6.483,18.291-3.151,24.637-6.483,14.184-7.534,28.37-7.534,21.464,3.855,28.37,7.534,12.5,6.483,24.637,6.483,18.291-3.151,24.637-6.483,14.184-7.534,28.37-7.534,21.464,3.855,28.37,7.534,12.5,6.483,24.637,6.483,18.291-3.151,24.637-6.483,14.184-7.534,28.37-7.534,21.464,3.855,28.37,7.534,12.5,6.483,24.637,6.483,18.291-3.151,24.637-6.483,14.184-7.534,28.37-7.534,21.464,3.855,28.37,7.534,12.5,6.483,24.637,6.483Zm0-28.557c-14.184,0-21.464-3.855-28.37-7.534s-12.5-6.483-24.637-6.483-18.291,3.151-24.637,6.483-14.184,7.534-28.37,7.534-21.464-3.855-28.37-7.534-12.5-6.483-24.637-6.483-18.291,3.151-24.637,6.483-14.184,7.534-28.37,7.534-21.464-3.855-28.37-7.534-12.5-6.483-24.637-6.483-18.291,3.151-24.637,6.483-14.184,7.534-28.37,7.534-21.464-3.855-28.37-7.534-12.5-6.483-24.637-6.483-18.291,3.151-24.637,6.483-14.184,7.534-28.37,7.534-22.022-3.679-29.116-7.359-12.312-6.48-24.63-6.48v-7.008c14.184,0,21.464,3.855,28.37,7.534S40.875,356,53.007,356s18.291-3.151,24.637-6.483,14.184-7.534,28.37-7.534,21.464,3.855,28.37,7.534S146.888,356,159.02,356s18.291-3.151,24.637-6.483,14.184-7.534,28.37-7.534,21.464,3.855,28.37,7.534S252.9,356,265.033,356s18.291-3.151,24.637-6.483,14.184-7.534,28.37-7.534,21.464,3.855,28.37,7.534S358.914,356,371.046,356s18.291-3.151,24.637-6.483,14.184-7.534,28.37-7.534,21.464,3.855,28.37,7.534S464.927,356,477.059,356Zm0-28.557c-14.184,0-21.464-3.855-28.37-7.534s-12.5-6.483-24.637-6.483-18.291,3.151-24.637,6.483-14.184,7.534-28.37,7.534-21.464-3.855-28.37-7.534-12.5-6.483-24.637-6.483-18.291,3.151-24.637,6.483-14.184,7.534-28.37,7.534-21.464-3.855-28.37-7.534-12.5-6.483-24.637-6.483-18.291,3.151-24.637,6.483-14.184,7.534-28.37,7.534-21.464-3.855-28.37-7.534-12.5-6.483-24.637-6.483-18.291,3.151-24.637,6.483-14.184,7.534-28.37,7.534-21.464-3.855-28.37-7.534-13.064-6.3-25.379-6.3v-7.008c14.184,0,21.464,3.855,28.37,7.534s12.5,6.483,24.637,6.483,18.291-3.151,24.637-6.483,14.184-7.534,28.37-7.534,21.464,3.855,28.37,7.534,12.5,6.483,24.637,6.483,18.291-3.151,24.637-6.483,14.184-7.534,28.37-7.534,21.464,3.855,28.37,7.534,12.5,6.483,24.637,6.483,18.291-3.151,24.637-6.483,14.184-7.534,28.37-7.534,21.464,3.855,28.37,7.534,12.5,6.483,24.637,6.483,18.291-3.151,24.637-6.483,14.184-7.534,28.37-7.534,21.464,3.855,28.37,7.534,12.5,6.483,24.637,6.483Zm0-28.557c-14.184,0-21.464-3.855-28.37-7.534s-12.5-6.483-24.637-6.483-18.291,3.151-24.637,6.483-14.184,7.534-28.37,7.534-21.464-3.855-28.37-7.534-12.5-6.483-24.637-6.483-18.291,3.151-24.637,6.483-14.184,7.534-28.37,7.534-21.464-3.855-28.37-7.534-12.5-6.483-24.637-6.483-18.291,3.151-24.637,6.483-14.184,7.534-28.37,7.534-21.464-3.855-28.37-7.534-12.5-6.479-24.635-6.479-18.291,3.151-24.637,6.483-14.184,7.534-28.37,7.534-21.464-3.855-28.37-7.534-13.06-6.13-25.378-6.13v-7.008c14.184,0,21.464,3.855,28.37,7.534s12.5,6.483,24.637,6.483,18.291-3.151,24.637-6.483,14.184-7.534,28.37-7.534,21.464,3.855,28.37,7.534,12.5,6.483,24.637,6.483,18.291-3.151,24.637-6.483,14.184-7.534,28.37-7.534,21.464,3.855,28.37,7.534,12.5,6.483,24.637,6.483,18.291-3.151,24.637-6.483,14.184-7.534,28.37-7.534,21.464,3.855,28.37,7.534,12.5,6.483,24.637,6.483,18.291-3.151,24.637-6.483,14.184-7.534,28.37-7.534,21.464,3.855,28.37,7.534,12.5,6.483,24.637,6.483Zm0-28.557c-14.184,0-21.464-3.855-28.37-7.534s-12.5-6.483-24.637-6.483-18.291,3.151-24.637,6.483-14.184,7.534-28.37,7.534-21.464-3.855-28.37-7.534-12.5-6.483-24.637-6.483-18.291,3.151-24.637,6.483-14.184,7.534-28.37,7.534-21.464-3.855-28.37-7.534-12.5-6.483-24.637-6.483-18.291,3.151-24.637,6.483-14.184,7.534-28.37,7.534S138.3,273.3,131.39,269.62s-12.5-6.483-24.637-6.483-18.291,3.151-24.637,6.483-14.184,7.534-28.37,7.534-21.464-3.855-28.37-7.534S12.318,263.492,0,263.492v-7.008c14.184,0,21.464,3.855,28.37,7.534s12.5,6.483,24.637,6.483,18.291-3.151,24.637-6.483,14.184-7.534,28.37-7.534,21.464,3.855,28.37,7.534,12.5,6.483,24.637,6.483,18.291-3.151,24.637-6.483,14.184-7.534,28.37-7.534,21.464,3.855,28.37,7.534,12.5,6.483,24.637,6.483,18.291-3.151,24.637-6.483,14.184-7.534,28.37-7.534,21.464,3.855,28.37,7.534,12.5,6.483,24.637,6.483,18.291-3.151,24.637-6.483,14.184-7.534,28.37-7.534,21.464,3.855,28.37,7.534,12.5,6.483,24.637,6.483Zm0-28.557c-14.184,0-21.464-3.855-28.37-7.534s-12.5-6.483-24.637-6.483-18.291,3.151-24.637,6.483-14.184,7.534-28.37,7.534-21.464-3.855-28.37-7.534-12.5-6.483-24.637-6.483-18.291,3.151-24.637,6.483-14.184,7.534-28.37,7.534-21.464-3.855-28.37-7.534-12.5-6.483-24.637-6.483-18.291,3.151-24.637,6.483-14.184,7.534-28.37,7.534-21.464-3.855-28.37-7.534-12.5-6.483-24.637-6.483-18.291,3.151-24.637,6.483S67.933,248.6,53.747,248.6s-22.022-3.329-29.116-7.008S12.318,234.936,0,234.936v-7.008c14.184,0,21.464,3.855,28.37,7.534s12.5,6.483,24.637,6.483,18.291-3.151,24.637-6.483,14.184-7.534,28.37-7.534,21.464,3.855,28.37,7.534,12.5,6.483,24.637,6.483,18.291-3.151,24.637-6.483,14.184-7.534,28.37-7.534,21.464,3.855,28.37,7.534,12.5,6.483,24.637,6.483,18.291-3.151,24.637-6.483,14.184-7.534,28.37-7.534,21.464,3.855,28.37,7.534,12.5,6.483,24.637,6.483,18.291-3.151,24.637-6.483,14.184-7.534,28.37-7.534,21.464,3.855,28.37,7.534,12.5,6.483,24.637,6.483Zm0-28.557c-14.184,0-21.464-3.855-28.37-7.534s-12.5-6.483-24.637-6.483-18.291,3.151-24.637,6.483-14.184,7.534-28.37,7.534-21.464-3.855-28.37-7.534-12.5-6.483-24.637-6.483-18.291,3.151-24.637,6.483-14.184,7.534-28.37,7.534-21.464-3.855-28.37-7.534-12.5-6.483-24.637-6.483-18.291,3.151-24.637,6.483-14.184,7.534-28.37,7.534-21.464-3.855-28.37-7.534-12.5-6.483-24.637-6.483-18.291,3.151-24.637,6.483-14.184,7.534-28.37,7.534-21.458-3.849-28.367-7.524S12.318,206.554,0,206.554v-7.008c14.184,0,21.464,3.855,28.37,7.534s12.5,6.483,24.637,6.483,18.291-3.151,24.637-6.483,14.184-7.534,28.37-7.534,21.464,3.855,28.37,7.534,12.5,6.483,24.637,6.483,18.291-3.151,24.637-6.483,14.184-7.534,28.37-7.534,21.464,3.855,28.37,7.534,12.5,6.483,24.637,6.483,18.291-3.151,24.637-6.483,14.184-7.534,28.37-7.534,21.464,3.855,28.37,7.534,12.5,6.483,24.637,6.483,18.291-3.151,24.637-6.483,14.184-7.534,28.37-7.534,21.464,3.855,28.37,7.534,12.5,6.483,24.637,6.483Zm0-28.557c-14.184,0-21.464-3.855-28.37-7.534s-12.5-6.483-24.637-6.483-18.29,3.16-24.631,6.488-14.184,7.534-28.37,7.534-21.464-3.855-28.37-7.534-12.508-6.479-24.635-6.479-18.291,3.151-24.637,6.483-14.184,7.534-28.37,7.534-21.464-3.855-28.37-7.534-12.5-6.483-24.637-6.483-18.291,3.151-24.637,6.483-14.184,7.534-28.37,7.534-21.464-3.855-28.37-7.534-12.507-6.483-24.642-6.483-18.291,3.151-24.637,6.483-14.184,7.534-28.37,7.534-21.46-3.858-28.368-7.538S12.318,178,0,178v-7.008c14.184,0,21.464,3.855,28.37,7.534s12.5,6.483,24.637,6.483,18.291-3.151,24.637-6.483,14.184-7.534,28.37-7.534,21.464,3.855,28.37,7.534,12.5,6.483,24.637,6.483,18.291-3.151,24.637-6.483,14.184-7.534,28.37-7.534,21.464,3.855,28.37,7.534,12.5,6.483,24.637,6.483,18.291-3.151,24.637-6.483,14.184-7.534,28.37-7.534,21.464,3.855,28.37,7.534,12.5,6.483,24.637,6.483,18.291-3.151,24.637-6.483,14.184-7.534,28.37-7.534,21.464,3.855,28.37,7.534,12.5,6.483,24.637,6.483Zm0-28.557c-14.184,0-21.464-3.855-28.37-7.534s-12.5-6.483-24.637-6.483-18.291,3.151-24.637,6.483-14.184,7.534-28.37,7.534-21.464-3.855-28.37-7.534-12.5-6.483-24.637-6.483-18.291,3.151-24.637,6.483-14.184,7.534-28.37,7.534-21.464-3.855-28.37-7.534-12.5-6.483-24.637-6.483-18.291,3.151-24.637,6.483-14.558,8.059-28.93,8.059-21.464-3.855-28.37-7.534-12.5-6.483-24.637-6.483-18.291,3.151-24.637,6.483-14.184,7.534-28.37,7.534-21.464-3.679-28.556-7.359S12.318,149.44,0,149.44v-7.007c14.184,0,21.464,3.855,28.37,7.534s12.5,6.483,24.637,6.483S71.3,153.3,77.644,149.967s14.184-7.534,28.368-7.534,21.464,3.855,28.37,7.534,12.5,6.483,24.637,6.483,18.291-3.151,24.637-6.483,14.183-7.534,28.368-7.534,21.464,3.855,28.37,7.534,12.5,6.483,24.637,6.483,18.291-3.151,24.637-6.483,14.183-7.534,28.368-7.534,21.464,3.855,28.37,7.534,12.5,6.483,24.637,6.483,18.291-3.151,24.637-6.483,14.183-7.534,28.367-7.534,21.464,3.855,28.37,7.534,12.5,6.483,24.637,6.483Zm0-28.557c-14.184,0-21.464-3.855-28.37-7.534s-12.5-6.483-24.637-6.483-18.291,3.151-24.637,6.483-14.184,7.534-28.37,7.534-21.464-3.855-28.37-7.534-12.5-6.483-24.637-6.483-18.291,3.151-24.637,6.483-14.184,7.534-28.37,7.534-21.464-3.855-28.37-7.534-12.5-6.483-24.637-6.483-18.291,3.151-24.637,6.483-14.558,8.235-28.93,8.235-21.464-3.855-28.37-7.534-12.5-6.483-24.637-6.483S87.9,124.2,81.557,127.535s-14.184,7.534-28.37,7.534-21.464-3.855-28.556-7.534S12.318,121.06,0,121.06v-7.008c14.184,0,21.464,3.855,28.37,7.534s12.5,6.483,24.637,6.483,18.291-3.155,24.635-6.483,14.184-7.534,28.37-7.534,21.464,3.855,28.37,7.534,12.5,6.483,24.637,6.483,18.291-3.151,24.637-6.483,14.184-7.534,28.37-7.534,21.464,3.855,28.37,7.534,12.5,6.483,24.637,6.483,18.291-3.151,24.637-6.483,14.184-7.534,28.37-7.534,21.464,3.855,28.37,7.534,12.5,6.483,24.637,6.483,18.291-3.151,24.637-6.483,14.184-7.534,28.37-7.534,21.464,3.855,28.37,7.534,12.5,6.483,24.637,6.483Zm0-28.557c-14.184,0-21.464-3.855-28.37-7.534s-12.5-6.483-24.637-6.483-18.291,3.151-24.637,6.483-14.184,7.534-28.37,7.534-21.464-3.855-28.37-7.534-12.5-6.483-24.637-6.483-18.291,3.151-24.637,6.483-14.184,7.534-28.37,7.534-21.464-3.855-28.37-7.534-12.5-6.483-24.637-6.483-18.291,3.151-24.637,6.483-14.558,8.235-28.93,8.235-21.464-3.855-28.37-7.534-12.5-6.483-24.637-6.483S87.9,95.646,81.557,98.977s-14.184,7.534-28.37,7.534-21.458-3.847-28.55-7.526S12.318,92.5,0,92.5V85.494c14.184,0,21.464,3.855,28.37,7.534s12.5,6.483,24.637,6.483S71.3,96.359,77.644,93.028s14.184-7.534,28.37-7.534,21.649,3.855,28.554,7.529,12.5,6.483,24.637,6.483,18.291-3.151,24.637-6.483,14.184-7.534,28.37-7.534,21.464,3.86,28.558,7.534,12.5,6.483,24.637,6.483,18.291-3.151,24.637-6.483,14.184-7.534,28.37-7.534,21.457,3.86,28.366,7.534,12.5,6.483,24.637,6.483,18.291-3.151,24.637-6.483,14.184-7.534,28.37-7.534,21.65,3.855,28.736,7.534,12.5,6.483,24.637,6.483Zm0-28.557c-14.184,0-21.464-3.855-28.37-7.534s-12.5-6.483-24.637-6.483-18.291,3.151-24.637,6.483-14.184,7.534-28.37,7.534-21.464-3.855-28.37-7.534-12.5-6.483-24.637-6.483-18.291,3.151-24.637,6.483-14.184,7.534-28.37,7.534S244.309,73.4,237.4,69.719s-12.5-6.483-24.637-6.483-18.291,3.151-24.637,6.483-14.558,8.235-28.93,8.235S137.736,74.1,130.83,70.42s-12.5-6.483-24.637-6.483S87.9,67.089,81.557,70.42s-14.184,7.534-28.37,7.534S31.723,74.275,24.631,70.6,12.318,63.946,0,63.946V56.938c14.184,0,21.464,3.855,28.37,7.534s12.5,6.483,24.637,6.483S71.3,67.8,77.644,64.472s14.184-7.534,28.37-7.534,21.464,3.855,28.37,7.534,12.5,6.483,24.637,6.483,18.291-3.151,24.637-6.483,14.184-7.534,28.37-7.534,21.464,3.855,28.37,7.534,12.5,6.483,24.637,6.483,18.291-3.151,24.637-6.483,14.184-7.534,28.37-7.534,21.464,3.855,28.37,7.534,12.5,6.483,24.637,6.483,18.291-3.151,24.637-6.483,14.184-7.534,28.37-7.534,21.464,3.855,28.37,7.534,12.5,6.483,24.637,6.483Zm0-28.557c-14.184,0-21.464-3.855-28.37-7.534s-12.5-6.483-24.637-6.483S406.5,37.83,400.156,41.162,385.971,48.7,371.786,48.7s-21.464-3.855-28.37-7.534-12.5-6.474-24.63-6.474-18.291,3.151-24.637,6.483S279.965,48.7,265.78,48.7s-21.837-2.978-28.736-6.658-12.5-6.483-24.637-6.483-18.291,3.151-24.637,6.483-14.184,7.534-28.556,7.534-21.464-3.855-28.37-7.534-12.5-6.483-24.637-6.483-18.291,3.151-24.823,6.483S67.2,49.581,53.014,49.581s-21.277-3.855-28.37-7.534S12.318,35.564,0,35.564V28.556c14.184,0,21.464,3.855,28.37,7.534s12.5,6.483,24.637,6.483S71.3,39.421,77.644,36.09s14.184-7.534,28.37-7.534,21.464,3.855,28.37,7.534,12.5,6.483,24.637,6.483,18.291-3.151,24.637-6.483,14.184-7.534,28.37-7.534,21.464,3.855,28.37,7.534,12.5,6.483,24.637,6.483,18.291-3.151,24.637-6.483,14.184-7.534,28.37-7.534,21.464,3.855,28.37,7.534,12.5,6.483,24.637,6.483,18.291-3.151,24.637-6.483,14.184-7.534,28.37-7.534,21.464,3.855,28.37,7.534,12.5,6.483,24.637,6.483Zm0-27.681c-14.184,0-21.464-3.855-28.37-7.534s-12.5-6.473-24.637-6.473-18.29,3.153-24.631,6.479-14.368,7.534-28.556,7.534-21.468-3.852-28.379-7.534-12.5-6.479-24.63-6.479-18.291,3.151-24.637,6.483-14.368,7.534-28.556,7.534-21.464-3.855-28.37-7.534S224.715,7.008,212.4,7.008s-18.291,3.151-24.637,6.483-14.184,7.534-28.556,7.534-21.464-3.856-28.368-7.538S118.517,7.008,106.2,7.008s-18.291,3.152-24.823,6.479-14,7.534-28.37,7.534-21.277-3.852-28.368-7.534S12.318,7.008,0,7.008V0C14.185,0,21.464,3.855,28.37,7.534s12.5,6.483,24.637,6.483S71.3,10.865,77.644,7.534,91.828,0,106.2,0s21.464,3.855,28.368,7.534,12.318,6.483,24.637,6.483,18.291-3.151,24.637-6.483S198.025,0,212.4,0s21.277,3.855,28.371,7.534,12.318,6.483,24.637,6.483,18.291-3.151,24.637-6.483S304.223,0,318.6,0s21.464,3.855,28.37,7.534,12.318,6.483,24.637,6.483,18.291-3.151,24.637-6.483S410.422,0,424.792,0s21.277,3.855,28.37,7.534,12.318,6.483,24.637,6.483Z" transform="translate(0.002)"/>
</svg>
